<?xml version="1.0" encoding="utf-8"?>
<!-- Generator: Adobe Illustrator 19.2.1, SVG Export Plug-In . SVG Version: 6.00 Build 0)  -->
<svg version="1.1" id="Layer_1" xmlns="http://www.w3.org/2000/svg" xmlns:xlink="http://www.w3.org/1999/xlink" x="0px" y="0px"
	 viewBox="0 0 27.2 26.2" style="enable-background:new 0 0 27.2 26.2;" xml:space="preserve">
<style type="text/css">
	.st0{fill:#B4965A;}
</style>
<path class="st0" d="M13.4,0.8c-7,0-12.6,5.7-12.6,12.6c0,2.4,0.7,4.7,1.9,6.7l0.2,0.2l0,0L3.3,21L4,20.6c0.1-0.1,0.6-0.5,0.1-1.2
	L4,19.3c-1.1-1.8-1.7-3.8-1.7-5.9c0-6.1,5-11.1,11.1-11.1s11.1,5,11.1,11.1s-5,11.1-11.1,11.1c-1.8,0-3.6-0.5-5.2-1.3
	c-0.6-0.4-1-0.9-1-1.4c0-0.3,0.1-0.7,0.2-0.9c0.5,0.3,1.1,0.5,1.7,0.5c0.5,0,1-0.1,1.6-0.2c2.2-0.6,5-3.4,6.1-4.6
	c0.9-1,3.7-4.2,4.1-6.6c0.2-1.7,0-2.7-0.9-3.6c-1.2-1.3-2.5-1.1-4,0.5c-0.7,0.7-1.3,1.6-1.3,2.5c0,0.6,0.3,1.1,0.8,1.6
	c0.1,0.1,0.4,0.4-0.6,1.5l-2.2,2.4c-0.6,0.6-1,0.9-1.2,0.9c0,0-0.1,0-0.2-0.1c-0.5-0.4-1-0.6-1.5-0.6c-1,0-1.9,0.8-2.5,1.6
	c-0.8,0.9-1.2,1.7-1.1,2.5c0,0.3,0.1,0.6,0.3,0.8c-0.3,0.5-0.7,1.3-0.5,2.2c0.1,1,0.7,1.8,1.8,2.5c1.8,1,3.9,1.5,6,1.5
	c7,0,12.6-5.7,12.6-12.6C26,6.4,20.4,0.8,13.4,0.8z M8.2,17.5c0.2-0.3,0.9-1,1.4-1c0.1,0,0.2,0,0.5,0.3c0.4,0.3,0.8,0.5,1.2,0.5
	c0.9,0,1.7-0.7,2.3-1.4l2.2-2.4c0.5-0.6,2-2.3,0.5-3.6C16,9.6,16,9.4,16,9.4c0-0.6,0.7-1.4,1-1.6c0.7-0.8,1-0.9,1.2-0.9
	c0.1,0,0.3,0,0.6,0.4c0.5,0.5,0.7,0.9,0.5,2.4s-2,3.9-3.5,5.6l0,0l-0.3,0.3l0,0c-1.6,1.8-3.8,3.7-5.2,4.1C9,20,8.6,20,7.8,19.4
	c-0.4-0.3-0.4-0.4-0.4-0.5C7.4,18.7,7.5,18.3,8.2,17.5z"/>
</svg>
